# xmcd
#
# Track frame offsets:
#	182
#	12452
#	27302
#	43145
#	59075
#	74300
#	91187
#	107035
#	124682
#	142607
#	160282
#	176677
#	192377
#	203065
#	212895
#	227422
#	251300
#	267480
#	284122
#	302985
#	319857
#	334102
#
# Disc length: 4688
#
# Revision: 4
# Processed by: cddbd v1.5.1PL0 Copyright (c) Steve Scherf et al.
# Submitted via: ExactAudioCopy v0.90b4
# Normalized: r2:TDELIM( - ),TSWAP
#
DISCID=4c124e16
DTITLE=Various Artist - Summer Dance Party
DYEAR=1995
DGENRE=
TTITLE0=Outhere Brothers - Boom Boom Boom
TTITLE1=Clock - Whoomph! (There it is)
TTITLE2=Jam and Spoon - Right In The Night (Fall In Love With The Music)
TTITLE3=Bobby Brown - Humpin' Around
TTITLE4=Scatman John - Scatman
TTITLE5=La Bouche - Be My Lover
TTITLE6=Corona - Rhythm of the Night
TTITLE7=(MC Sar &) The Real McCoy - Anoyher Night
TTITLE8=Dr Alban - It's My Life
TTITLE9=Haddaway - What is Love
TTITLE10=Snap - Rhythm is a Dancer
TTITLE11=Take That - Could it be Magic
TTITLE12=Perez Prado - Guaglione
TTITLE13=The Champs - Tequila
TTITLE14=Lambada - Lambada
TTITLE15=Gloria Estefan (see Extended CD Info) - Miami Hit Mix
TTITLE16=Arrow - Hot Hot Hot
TTITLE17=Pato Banton and Ali Campbell - Baby Come Back
TTITLE18=Big Mountain - Baby I Love Your Way
TTITLE19=Inner Circle - Sweat (A la la la la la long)
TTITLE20=Rednex - Cotton Eye Joe
TTITLE21=Jazzy Jeff and the Fresh Prince - Summertime
EXTD=Track 16 - Miami Hit Mix\n\nContains - Dr Beat/Conga/Rhythm is Gonna Get You/1-2-3/Get on your Feet
EXTT0=
EXTT1=
EXTT2=
EXTT3=
EXTT4=
EXTT5=
EXTT6=
EXTT7=
EXTT8=
EXTT9=
EXTT10=
EXTT11=
EXTT12=
EXTT13=
EXTT14=
EXTT15=
EXTT16=
EXTT17=
EXTT18=
EXTT19=
EXTT20=
EXTT21=
PLAYORDER=
